<?xml version="1.0" standalone="no"?><!DOCTYPE svg PUBLIC "-//W3C//DTD SVG 1.1//EN" "http://www.w3.org/Graphics/SVG/1.1/DTD/svg11.dtd"><svg t="1525342630721" class="icon" style="" viewBox="0 0 1024 1024" version="1.1" xmlns="http://www.w3.org/2000/svg" p-id="1790" xmlns:xlink="http://www.w3.org/1999/xlink" width="200" height="200"><defs><style type="text/css"></style></defs><path d="M512 995.5584c267.0592 0 483.5584-216.4992 483.5584-483.5584C995.5584 244.9408 779.0592 28.4416 512 28.4416 244.9408 28.4416 28.4416 244.9408 28.4416 512c0 267.0592 216.4992 483.5584 483.5584 483.5584zM512 1024C229.2224 1024 0 794.7776 0 512S229.2224 0 512 0s512 229.2224 512 512-229.2224 512-512 512z" fill="#bfbfbf" p-id="1791"></path><path d="M530.2528 510.1568l170.8288-170.8032a14.336 14.336 0 0 0 0.1536-20.2752 14.5152 14.5152 0 0 0-20.2752 0.1536l-170.8032 170.8032-170.8032-170.8032a14.336 14.336 0 0 0-20.2752-0.1536 14.5152 14.5152 0 0 0 0.1536 20.2752l170.8032 170.8032L319.232 680.96a14.336 14.336 0 0 0-0.1536 20.2752c5.6832 5.4528 14.6688 5.376 20.2752-0.1536l170.8032-170.8288 170.8032 170.8288a14.3616 14.3616 0 0 0 20.2752 0.1536 14.5152 14.5152 0 0 0-0.1536-20.2752l-170.8288-170.8032z" fill="#bfbfbf" p-id="1792"></path></svg>