<?xml version="1.0" standalone="no"?><!DOCTYPE svg PUBLIC "-//W3C//DTD SVG 1.1//EN" "http://www.w3.org/Graphics/SVG/1.1/DTD/svg11.dtd"><svg t="1527212392863" class="icon" style="" viewBox="0 0 1024 1024" version="1.1" xmlns="http://www.w3.org/2000/svg" p-id="2112" xmlns:xlink="http://www.w3.org/1999/xlink" width="16" height="16"><defs><style type="text/css"></style></defs><path d="M526.073436 195.636513l246.810256-34.133334c18.379487-2.625641 36.758974 10.502564 39.384616 28.882052s-10.502564 36.758974-28.882052 39.384615l-233.682051 31.507692v708.923077c0 18.379487-15.753846 34.133333-34.133333 34.133334-18.379487 0-34.133333-15.753846-34.133334-34.133334l-21.005128-341.333333h-2.625641-2.625641l-21.005128 341.333333c0 18.379487-15.753846 34.133333-34.133333 34.133334-18.379487 0-34.133333-15.753846-34.133334-34.133334v-548.758974l-118.153846-73.517949c-5.251282-2.625641-7.876923-5.251282-13.128205-7.876923-13.128205-7.876923-15.753846-26.25641-7.876923-39.384615 2.625641-5.251282 7.876923-10.502564 13.128205-13.128205l152.28718-94.523077c7.876923-10.502564 21.005128-15.753846 31.507692-21.005128-26.25641-13.128205-42.010256-42.010256-42.010257-73.517949 0-44.635897 36.758974-84.020513 84.020513-84.020513 44.635897 0 84.020513 36.758974 84.020513 84.020513 0 34.133333-21.005128 63.015385-49.887179 76.14359 7.876923 5.251282 18.379487 13.128205 26.25641 21.005128z m-160.164103 94.523077l-49.887179 31.507692 49.887179 31.507692v-63.015384z" fill="#ADCAF0" p-id="2113"></path><path d="M476.186256 245.523692s-2.625641 0 0 0c-5.251282 2.625641-7.876923 2.625641-10.502564 0l-26.25641-39.384615v-2.625641c0-2.625641 2.625641-5.251282 5.251282-5.251282h55.138462c2.625641 2.625641 2.625641 5.251282 2.625641 7.876923l-26.256411 39.384615z m7.876923 10.502564l47.261539 99.774359 186.420513 81.394872c5.251282 2.625641 5.251282 7.876923 5.251282 10.502564 0 2.625641-2.625641 5.251282-5.251282 5.251282l-13.128205 5.251282c-5.251282 2.625641-10.502564 2.625641-18.379488 0l-189.046153-52.51282-31.507693-149.661539c0-2.625641 2.625641-7.876923 5.251282-7.876923h2.625641c5.251282 2.625641 7.876923 5.251282 10.502564 7.876923z" fill="#5C8CE1" p-id="2114"></path></svg>