<?xml version="1.0" standalone="no"?><!DOCTYPE svg PUBLIC "-//W3C//DTD SVG 1.1//EN" "http://www.w3.org/Graphics/SVG/1.1/DTD/svg11.dtd"><svg t="1527211927095" class="icon" style="" viewBox="0 0 1378 1024" version="1.1" xmlns="http://www.w3.org/2000/svg" p-id="2304" xmlns:xlink="http://www.w3.org/1999/xlink" width="21.53125" height="16"><defs><style type="text/css"></style></defs><path d="M79.202462 890.092308h1220.923076c31.507692 0 59.076923 27.569231 59.076924 59.076923s-27.569231 59.076923-59.076924 59.076923h-1220.923076c-31.507692 0-59.076923-27.569231-59.076924-59.076923s27.569231-59.076923 59.076924-59.076923z" fill="#E8EDF0" p-id="2305"></path><path d="M1079.571692 496.246154c7.876923 31.507692-15.753846 63.015385-47.261538 66.953846l-236.307692 47.261538c-31.507692 7.876923-63.015385-15.753846-66.953847-47.261538-7.876923-31.507692 15.753846-63.015385 47.261539-66.953846l236.307692-47.261539c27.569231-3.938462 59.076923 15.753846 66.953846 47.261539z" fill="#85A8E4" p-id="2306"></path><path d="M803.879385 594.707692c19.692308-27.569231 55.138462-31.507692 82.707692-11.815384l263.876923 200.861538c27.569231 19.692308 31.507692 55.138462 11.815385 82.707692-19.692308 27.569231-55.138462 31.507692-82.707693 11.815385l-263.876923-200.861538c-27.569231-19.692308-31.507692-59.076923-11.815384-82.707693z" fill="#ADCAF0" p-id="2307"></path><path d="M882.648615 594.707692c-19.692308-27.569231-55.138462-31.507692-82.707692-15.753846l-330.830769 232.369231c-27.569231 19.692308-31.507692 55.138462-15.753846 82.707692 19.692308 27.569231 55.138462 31.507692 82.707692 15.753846l330.830769-232.36923c27.569231-19.692308 35.446154-55.138462 15.753846-82.707693zM1032.310154 228.430769c70.892308-19.692308 149.661538 19.692308 169.353846 94.523077l118.153846 413.538462c19.692308 70.892308-19.692308 149.661538-94.523077 169.353846-70.892308 19.692308-149.661538-19.692308-169.353846-94.523077l-118.153846-413.538462c-19.692308-70.892308 23.630769-145.723077 94.523077-169.353846z" fill="#ADCAF0" p-id="2308"></path><path d="M1044.125538 315.076923c19.692308 27.569231 11.815385 63.015385-11.815384 82.707692l-252.061539 181.169231c-27.569231 19.692308-63.015385 11.815385-82.707692-11.815384-19.692308-27.569231-11.815385-63.015385 11.815385-82.707693l252.061538-181.169231c27.569231-19.692308 63.015385-15.753846 82.707692 11.815385z" fill="#D1E3FB" p-id="2309"></path><path d="M1028.371692 133.907692m-118.153846 0a118.153846 118.153846 0 1 0 236.307692 0 118.153846 118.153846 0 1 0-236.307692 0Z" fill="#ADCAF0" p-id="2310"></path></svg>