<?xml version="1.0" standalone="no"?><!DOCTYPE svg PUBLIC "-//W3C//DTD SVG 1.1//EN" "http://www.w3.org/Graphics/SVG/1.1/DTD/svg11.dtd"><svg t="1527142191164" class="icon" style="" viewBox="0 0 1024 1024" version="1.1" xmlns="http://www.w3.org/2000/svg" p-id="2352" xmlns:xlink="http://www.w3.org/1999/xlink" width="16" height="16"><defs><style type="text/css"></style></defs><path d="M551.396894 60.235294l114.447059 246.964706c6.023529 12.047059 18.070588 24.094118 30.117647 24.094118l259.011765 42.164706c36.141176 6.023529 48.188235 48.188235 24.094117 72.282352l-186.729411 192.752942c-12.047059 12.047059-12.047059 24.094118-12.047059 36.141176l42.164706 271.058824c6.023529 36.141176-30.117647 66.258824-60.235294 48.188235l-234.917648-126.494118c-12.047059-6.023529-24.094118-6.023529-36.141176 0l-234.917647 126.494118c-30.117647 18.070588-66.258824-12.047059-60.235294-48.188235l42.164706-271.058824c0-12.047059 0-30.117647-12.047059-36.141176l-186.729412-192.752942c-24.094118-24.094118-12.047059-72.282353 24.094118-72.282352l259.011764-42.164706c12.047059 0 24.094118-12.047059 30.117648-24.094118l114.447058-246.964706c24.094118-30.117647 72.282353-30.117647 84.329412 0z" fill="#E26735" p-id="2353"></path></svg>