<?xml version="1.0" standalone="no"?><!DOCTYPE svg PUBLIC "-//W3C//DTD SVG 1.1//EN" "http://www.w3.org/Graphics/SVG/1.1/DTD/svg11.dtd"><svg t="1527391088878" class="icon" style="" viewBox="0 0 5120 1024" version="1.1" xmlns="http://www.w3.org/2000/svg" p-id="2865" data-spm-anchor-id="a313x.7781069.0.i6" xmlns:xlink="http://www.w3.org/1999/xlink" width="25" height="5"><defs><style type="text/css"></style></defs><path d="M512 1024c-273.066667 0-512-238.933333-512-512s238.933333-512 512-512 512 238.933333 512 512-238.933333 512-512 512z m2048 0c-273.066667 0-512-238.933333-512-512s238.933333-512 512-512 512 238.933333 512 512-238.933333 512-512 512z m2048 0c-273.066667 0-512-238.933333-512-512s238.933333-512 512-512 512 238.933333 512 512-238.933333 512-512 512z" fill="#C2CCD0" p-id="2866"></path></svg>