<?xml version="1.0" standalone="no"?><!DOCTYPE svg PUBLIC "-//W3C//DTD SVG 1.1//EN" "http://www.w3.org/Graphics/SVG/1.1/DTD/svg11.dtd"><svg t="1505536256127" class="icon" style="" viewBox="0 0 1024 1024" version="1.1" xmlns="http://www.w3.org/2000/svg" p-id="48747" xmlns:xlink="http://www.w3.org/1999/xlink" width="32" height="32"><defs><style type="text/css"></style></defs><path d="M512 995.555556c267.064889 0 483.555556-216.490667 483.555556-483.555556S779.064889 28.444444 512 28.444444 28.444444 244.935111 28.444444 512s216.490667 483.555556 483.555556 483.555556z m0 28.444444C229.233778 1024 0 794.766222 0 512S229.233778 0 512 0s512 229.233778 512 512-229.233778 512-512 512z" p-id="48748" fill="#ffffff"></path><path d="M530.261333 510.151111l170.808889-170.808889c5.660444-5.660444 5.688889-14.705778 0.170667-20.252444a14.506667 14.506667 0 0 0-20.280889 0.142222l-170.808889 170.808889-170.808889-170.808889a14.336 14.336 0 0 0-20.252444-0.142222 14.506667 14.506667 0 0 0 0.142222 20.252444l170.808889 170.808889-170.808889 170.808889c-5.660444 5.660444-5.688889 14.705778-0.142222 20.280889a14.506667 14.506667 0 0 0 20.252444-0.170667l170.808889-170.808889 170.808889 170.808889c5.660444 5.660444 14.705778 5.688889 20.280889 0.170667a14.506667 14.506667 0 0 0-0.170667-20.280889l-170.808889-170.808889z" p-id="48749" fill="#ffffff"></path></svg>