<?xml version="1.0" encoding="utf-8"?>
<!-- Generator: Adobe Illustrator 19.0.0, SVG Export Plug-In . SVG Version: 6.00 Build 0)  -->
<svg version="1.1" id="图层_1" xmlns="http://www.w3.org/2000/svg" xmlns:xlink="http://www.w3.org/1999/xlink" x="0px" y="0px"
	 viewBox="-1679 829.8 42 42" style="enable-background:new -1679 829.8 42 42;" xml:space="preserve">
<style type="text/css">
	.st0{fill:#FDA32B;}
	.st1{fill:#FDA32C;}
</style>
<title>Group 12</title>
<desc>Created with Sketch.</desc>
<g id="Page-1">
	<g id="活动二次及以后弹窗" transform="translate(-82.000000, -406.000000)">
		<g id="多方式1" transform="translate(73.000000, 361.000000)">
			<g id="Group-11" transform="translate(0.000000, 45.000000)">
				<g id="手机">
					<g id="Group-12" transform="translate(9.000000, 0.000000)">
						<path id="Oval-10" class="st0" d="M-1658,871.1c-11.2,0-20.3-9.1-20.3-20.3c0-11.2,9.1-20.3,20.3-20.3s20.3,9.1,20.3,20.3
							C-1637.7,862-1646.8,871.1-1658,871.1z M-1658,870.5c10.9,0,19.7-8.8,19.7-19.7s-8.8-19.7-19.7-19.7s-19.7,8.8-19.7,19.7
							S-1668.9,870.5-1658,870.5z"/>
						<g id="手机号邀请" transform="translate(12.891892, 11.810811)">
							<path id="Rectangle-26" class="st1" d="M-1664.6,830.8h-12.6c-0.4,0-0.8,0.5-0.8,1.1v14.8c0,0.6,0.4,1.1,0.8,1.1h12.6
								c0.4,0,0.8-0.5,0.8-1.1v-14.8C-1663.8,831.3-1664.2,830.8-1664.6,830.8z M-1677.2,829.8h12.6c1,0,1.8,0.9,1.8,2.1v14.8
								c0,1.2-0.8,2.1-1.8,2.1h-12.6c-1,0-1.8-0.9-1.8-2.1v-14.8C-1679,830.7-1678.2,829.8-1677.2,829.8z"/>
							<polygon id="Line" class="st0" points="-1679,842.8 -1662.8,842.8 -1662.8,841.8 -1679,841.8 							"/>
							<ellipse id="Oval-2" class="st0" cx="-1670.9" cy="845.9" rx="1" ry="1"/>
						</g>
					</g>
				</g>
			</g>
		</g>
	</g>
</g>
</svg>
