<?xml version="1.0" encoding="utf-8"?>
<!-- Generator: Adobe Illustrator 19.0.0, SVG Export Plug-In . SVG Version: 6.00 Build 0)  -->
<svg version="1.1" id="图层_1" xmlns="http://www.w3.org/2000/svg" xmlns:xlink="http://www.w3.org/1999/xlink" x="0px" y="0px"
	 viewBox="-1679 829.8 42 42" style="enable-background:new -1679 829.8 42 42;" xml:space="preserve">
<style type="text/css">
	.st0{fill:#5EC663;}
	.st1{fill:#5DC663;}
</style>
<title>微信</title>
<desc>Created with Sketch.</desc>
<g id="Page-1">
	<g id="活动二次及以后弹窗" transform="translate(-252.000000, -406.000000)">
		<g id="多方式1" transform="translate(73.000000, 361.000000)">
			<g id="Group-11" transform="translate(0.000000, 45.000000)">
				<g id="微信" transform="translate(176.000000, 0.000000)">
					<g transform="translate(3.000000, 0.000000)">
						<path id="Oval-10-Copy-2" class="st0" d="M-1658,871.1c-11.2,0-20.3-9.1-20.3-20.3c0-11.2,9.1-20.3,20.3-20.3
							s20.3,9.1,20.3,20.3C-1637.7,862-1646.8,871.1-1658,871.1z M-1658,870.5c10.9,0,19.7-8.8,19.7-19.7s-8.8-19.7-19.7-19.7
							s-19.7,8.8-19.7,19.7S-1668.9,870.5-1658,870.5z"/>
						<g id="微信邀请" transform="translate(10.729730, 10.729730)">
							<path id="Path-Copy-5" class="st1" d="M-1661,847c-0.1-0.2,0-0.4,0.2-0.5c1.6-1.2,2.5-2.7,2.5-4.2c0-2.9-2.8-5.4-6.1-5.4
								c-3.4,0-6.1,2.4-6.1,5.4c0,3,2.7,5.4,6.1,5.4c0.3,0,0.7,0,1.1-0.1c0.2,0,0.3-0.1,0.6-0.1c0.3-0.1,0.4-0.1,0.6-0.1
								c0.1,0,0.3,0,0.4,0.1l1,0.6L-1661,847z M-1659.4,848.8c0.1,0.4-0.4,0.8-0.7,0.6l-1.9-1.1c-0.1,0-0.2,0.1-0.4,0.1
								c-0.3,0.1-0.4,0.1-0.6,0.1c-0.5,0.1-0.9,0.2-1.3,0.2c-3.9,0-7.1-2.8-7.1-6.4c0-3.6,3.2-6.4,7.1-6.4c3.8,0,7.1,2.9,7.1,6.4
								c0,1.8-1,3.5-2.7,4.8L-1659.4,848.8z"/>
							<path id="Combined-Shape" class="st1" d="M-1679.5,837.8c0-4.5,3.8-7.9,8.9-7.9c4.4,0,8,2.8,8.7,6.6c0.1,0.4-0.3,0.7-0.6,0.6
								c-0.6-0.2-1.1-0.2-1.7-0.2c-3.4,0-6.1,2.4-6.1,5.4c0,1,0.3,1.9,0.8,2.7c0.2,0.3,0,0.7-0.4,0.8c-0.2,0-0.4,0-0.7,0
								c-0.5,0-1-0.1-1.6-0.2c-0.2,0-0.4-0.1-0.8-0.2c-0.2-0.1-0.4-0.1-0.5-0.1l-2.5,1.5c-0.4,0.2-0.9-0.1-0.7-0.6l0.6-2.3
								C-1678.2,842.1-1679.5,840-1679.5,837.8z M-1670.6,830.8c-4.6,0-7.9,3-7.9,6.9c0,2,1.2,3.9,3.2,5.4c0.2,0.1,0.2,0.3,0.2,0.5
								l-0.4,1.4l1.6-0.9c0.1-0.1,0.2-0.1,0.4-0.1c0.2,0,0.4,0.1,0.8,0.2c0.4,0.1,0.5,0.1,0.7,0.2c0.5,0.1,0.8,0.2,1.2,0.2
								c-0.4-0.8-0.5-1.6-0.5-2.5c0-3.6,3.2-6.4,7.1-6.4c0.4,0,0.8,0,1.2,0.1C-1664,832.9-1667.1,830.8-1670.6,830.8z"/>
							<circle id="Oval-12-Copy-11" class="st1" cx="-1662.3" cy="841.3" r="1"/>
							<circle id="Oval-12-Copy-12" class="st1" cx="-1666.6" cy="841.3" r="1"/>
							<circle id="Oval-12-Copy-13" class="st1" cx="-1673" cy="834.8" r="1"/>
							<circle id="Oval-12-Copy-13_1_" class="st1" cx="-1668.2" cy="834.8" r="1"/>
						</g>
					</g>
				</g>
			</g>
		</g>
	</g>
</g>
</svg>
