<?xml version="1.0" encoding="utf-8"?>
<!-- Generator: Adobe Illustrator 19.0.0, SVG Export Plug-In . SVG Version: 6.00 Build 0)  -->
<svg version="1.1" id="图层_1" xmlns="http://www.w3.org/2000/svg" xmlns:xlink="http://www.w3.org/1999/xlink" x="0px" y="0px"
	 viewBox="-1679 829.8 42 42" style="enable-background:new -1679 829.8 42 42;" xml:space="preserve">
<style type="text/css">
	.st0{fill:#3CBAFF;}
	.st1{display:none;fill:#3CBAFF;}
</style>
<title>Group 12</title>
<desc>Created with Sketch.</desc>
<g id="Page-1">
	<g id="活动二次及以后弹窗" transform="translate(-82.000000, -406.000000)">
		<g id="多方式1" transform="translate(73.000000, 361.000000)">
			<g id="Group-11" transform="translate(0.000000, 45.000000)">
				<g id="手机">
					<g id="Group-12" transform="translate(9.000000, 0.000000)">
						<path id="Oval-10" class="st0" d="M-1658,871.1c-11.2,0-20.3-9.1-20.3-20.3s9.1-20.3,20.3-20.3s20.3,9.1,20.3,20.3
							S-1646.8,871.1-1658,871.1z M-1658,870.6c10.9,0,19.7-8.8,19.7-19.7s-8.8-19.7-19.7-19.7s-19.7,8.8-19.7,19.7
							S-1668.9,870.6-1658,870.6z"/>
					</g>
				</g>
			</g>
		</g>
	</g>
</g>
<g id="Page-1_1_">
	<g id="活动二次及以后弹窗_1_" transform="translate(-167.000000, -406.000000)">
		<g id="多方式1_1_" transform="translate(73.000000, 361.000000)">
			<g id="Group-11_1_" transform="translate(0.000000, 45.000000)">
				<g id="云之家" transform="translate(85.000000, 0.000000)">
					<g id="Group-14" transform="translate(9.000000, 0.000000)">
						<path id="Oval-10-Copy" class="st1" d="M-1658,871.1c-11.2,0-20.2-9.1-20.2-20.2s9.1-20.2,20.2-20.2s20.2,9.1,20.2,20.2
							S-1646.8,871.1-1658,871.1z M-1658,870.6c10.9,0,19.8-8.8,19.8-19.8c0-10.9-8.8-19.8-19.8-19.8s-19.8,8.8-19.8,19.8
							C-1677.8,861.8-1668.9,870.6-1658,870.6z"/>
						<g id="Group-7" transform="translate(8.333333, 10.833333)">
							<path id="Combined-Shape" class="st0" d="M-1670.7,842.8L-1670.7,842.8l0,0.1c-0.4,1.1-1.7,1.6-3,2.2
								c-1.7,0.7-3.5,1.4-3.8,3.5h17.5c-0.3-2.1-2.1-2.8-3.8-3.5c-1.3-0.5-2.6-1-3-2.2l0-0.1l0-0.1c0-0.4,0-0.7,0-1
								c1.3-1.1,2.2-3.3,2.2-5.5c0-3.2-1.9-4.8-4.2-4.8c-2.3,0-4.2,1.7-4.2,4.8c0,2.2,0.9,4.4,2.3,5.5
								C-1670.7,842.1-1670.7,842.4-1670.7,842.8z M-1673.9,836.3c0-3.5,2.1-5.8,5.2-5.8c3,0,5.2,2.3,5.2,5.8c0,2.3-0.9,4.5-2.2,5.9
								c0,0.1,0,0.3,0,0.4c0.2,0.5,0.8,0.9,2.4,1.5c0.1,0,0.1,0,0.2,0.1c2.7,1.1,3.9,2,4.2,4.2c0.1,0.6-0.4,1.2-1,1.2h-17.5
								c-0.6,0-1.1-0.6-1-1.2c0.4-2.2,1.5-3.1,4.4-4.2c1.6-0.7,2.2-1,2.4-1.5c0-0.1,0-0.3,0-0.4
								C-1673.1,840.9-1673.9,838.6-1673.9,836.3z"/>
							<path id="Line_1_" class="st0" d="M-1660.9,835.9h5.6c0.3,0,0.5-0.2,0.5-0.5c0-0.3-0.2-0.5-0.5-0.5h-5.6
								c-0.3,0-0.5,0.2-0.5,0.5C-1661.4,835.6-1661.2,835.9-1660.9,835.9z"/>
							<path id="Line-Copy" class="st0" d="M-1660.9,839.9h5.6c0.3,0,0.5-0.2,0.5-0.5c0-0.3-0.2-0.5-0.5-0.5h-5.6
								c-0.3,0-0.5,0.2-0.5,0.5C-1661.4,839.6-1661.2,839.9-1660.9,839.9z"/>
							<path id="Line-Copy-2" class="st0" d="M-1659.1,843.9h3.8c0.3,0,0.5-0.2,0.5-0.5c0-0.3-0.2-0.5-0.5-0.5h-3.8
								c-0.3,0-0.5,0.2-0.5,0.5C-1659.6,843.6-1659.4,843.9-1659.1,843.9z"/>
						</g>
					</g>
				</g>
			</g>
		</g>
	</g>
</g>
</svg>
