<?xml version="1.0" standalone="no"?><!DOCTYPE svg PUBLIC "-//W3C//DTD SVG 1.1//EN" "http://www.w3.org/Graphics/SVG/1.1/DTD/svg11.dtd"><svg t="1524044199049" class="icon" style="" viewBox="0 0 2560 1024" version="1.1" xmlns="http://www.w3.org/2000/svg" p-id="12125" xmlns:xlink="http://www.w3.org/1999/xlink" width="500" height="200"><defs><style type="text/css"></style></defs><path d="M512 0h1536c281.6 0 512 230.4 512 512s-230.4 512-512 512H512c-281.6 0-512-230.4-512-512s230.4-512 512-512z m364.8 198.4v96H627.2v51.2h249.6v121.6H582.4V512H832c-51.2 96-140.8 172.8-256 230.4l32 44.8c128-70.4 211.2-166.4 268.8-281.6h6.4v313.6h57.6V512h6.4c51.2 102.4 134.4 192 262.4 275.2l38.4-44.8c-121.6-70.4-204.8-147.2-256-230.4h243.2v-51.2h-294.4V339.2h249.6v-51.2h-249.6V192h-64z m691.2 44.8v44.8h166.4v57.6h-192v44.8h371.2c-12.8 38.4-25.6 70.4-44.8 102.4l51.2 12.8c19.2-44.8 38.4-89.6 44.8-128v-32h-179.2v-57.6h166.4v-44.8h-166.4V192h-51.2v51.2h-166.4zM1536 595.2v44.8h198.4c-6.4 19.2-19.2 38.4-32 51.2-32 38.4-89.6 70.4-179.2 96l25.6 38.4c89.6-25.6 147.2-57.6 185.6-102.4 6.4-6.4 12.8-12.8 12.8-19.2 64 32 134.4 76.8 198.4 128l32-44.8c-64-44.8-128-89.6-204.8-121.6 0-6.4 6.4-19.2 6.4-25.6h192v-44.8H1792c0-19.2 6.4-38.4 6.4-57.6V422.4h-51.2v115.2c0 19.2 0 38.4-6.4 57.6H1536z m32-108.8l-25.6 32c38.4 19.2 76.8 44.8 108.8 70.4l25.6-38.4c-32-25.6-70.4-51.2-108.8-64z m57.6-70.4l-19.2 32c38.4 19.2 70.4 38.4 102.4 70.4l25.6-38.4c-32-25.6-70.4-51.2-108.8-64z m-230.4-211.2l-38.4 32c51.2 38.4 96 70.4 121.6 102.4l38.4-32c-32-32-70.4-70.4-121.6-102.4z m-89.6 204.8v44.8H1408v275.2c0 12.8-6.4 19.2-19.2 32l19.2 44.8c44.8-32 83.2-64 121.6-102.4l-12.8-51.2-57.6 57.6V409.6h-153.6z" p-id="12126" fill="#EA5950"></path></svg>