<?xml version="1.0" encoding="utf-8"?>
<!-- Generator: Adobe Illustrator 21.0.0, SVG Export Plug-In . SVG Version: 6.00 Build 0)  -->
<svg version="1.1" id="图层_1" xmlns="http://www.w3.org/2000/svg" xmlns:xlink="http://www.w3.org/1999/xlink" x="0px" y="0px"
	 viewBox="0 0 92 92" style="enable-background:new 0 0 92 92;" xml:space="preserve">
<style type="text/css">
	.st0{fill:#EA5950;}
</style>
<title>印章</title>
<desc>Created with Sketch.</desc>
<g id="_x32_018-3A3B">
	<g id="不同意操作" transform="translate(-265.000000, -78.000000)">
		<g id="印章-未通过" transform="translate(265.000000, 78.000000)">
			
				<g id="印章" transform="translate(46.139610, 45.846717) rotate(-45.000000) translate(-46.139610, -45.846717) translate(1.139610, 0.846717)">
				<path id="Oval-7" class="st0" d="M45,89.6c24.6,0,44.6-20,44.6-44.6S69.6,0.4,45,0.4S0.4,20.4,0.4,45S20.4,89.6,45,89.6z M45,90
					C20.1,90,0,69.9,0,45S20.1,0,45,0s45,20.1,45,45S69.9,90,45,90z"/>
				<path id="Oval-7_1_" class="st0" d="M45,85c22.1,0,40-17.9,40-40S67.1,5,45,5S5,22.9,5,45S22.9,85,45,85z M45,86
					C22.4,86,4,67.6,4,45S22.4,4,45,4s41,18.4,41,41S67.6,86,45,86z"/>
				<polygon id="Star" class="st0" points="45,82.5 43.2,83.4 43.6,81.5 42.1,80.1 44.1,79.8 45,78 45.9,79.8 47.9,80.1 46.4,81.5 
					46.8,83.4 				"/>
				<polygon id="Star_1_" class="st0" points="61.5,78.4 60.1,79.9 59.8,77.9 58,77 59.8,76.1 60.1,74.1 61.5,75.6 63.4,75.2 
					62.5,77 63.4,78.8 				"/>
				<polygon id="Star_2_" class="st0" points="28.5,78.4 26.6,78.8 27.5,77 26.6,75.2 28.5,75.6 29.9,74.1 30.2,76.1 32,77 
					30.2,77.9 29.9,79.9 				"/>
				<g id="Group-17" transform="translate(15.000000, 15.000000)">
					<path id="Oval-7_2_" class="st0" d="M30,58c7.5,0,14.6-3,19.8-8.2C55,44.6,58,37.5,58,30s-3-14.6-8.2-19.8C44.6,5,37.5,2,30,2
						s-14.6,3-19.8,8.2S2,22.5,2,30s3,14.6,8.2,19.8C15.4,55,22.5,58,30,58z M30,60c-8.3,0-15.8-3.4-21.2-8.8S0,38.3,0,30
						S3.4,14.2,8.8,8.8S21.7,0,30,0s15.8,3.4,21.2,8.8S60,21.7,60,30s-3.4,15.8-8.8,21.2S38.3,60,30,60z"/>
					<path id="Oval-7_3_" class="st0" d="M30,55.6c6.9,0,13.3-2.7,18.1-7.5s7.5-11.2,7.5-18.1s-2.7-13.3-7.5-18.1S36.9,4.4,30,4.4
						s-13.3,2.7-18.1,7.5S4.4,23.1,4.4,30s2.7,13.3,7.5,18.1S23.1,55.6,30,55.6z M30,56c-7.2,0-13.7-2.9-18.4-7.6S4,37.2,4,30
						s2.9-13.7,7.6-18.4S22.8,4,30,4s13.7,2.9,18.4,7.6S56,22.8,56,30s-2.9,13.7-7.6,18.4S37.2,56,30,56z"/>
				</g>
				<path id="未通过" class="st0" d="M29.5,41H33l0.9-1.1l1,1.2c0.1,0.1,0.1,0.2,0.1,0.2c0,0.1-0.1,0.1-0.2,0.1h-5.3v3h4.7l1-1.1
					l1,1.2c0.1,0.1,0.2,0.2,0.2,0.3s-0.1,0.1-0.2,0.1H30c0.7,1.3,1.6,2.3,2.8,3.2c1.1,0.8,2.3,1.4,3.6,1.6v0.3
					c-0.7,0.1-1.2,0.4-1.5,0.8c-0.1,0.1-0.1,0.2-0.2,0.2c-0.1,0-0.6-0.3-1.5-0.9c-0.8-0.6-1.6-1.3-2.2-2.2c-0.6-0.8-1.1-1.8-1.4-3
					h-0.1V49c0,1,0,1.6,0,2l0,0.9c0,0.2-0.2,0.4-0.5,0.5c-0.3,0.2-0.6,0.3-0.7,0.3c-0.1,0-0.2-0.1-0.2-0.4l0.1-1.6
					c0-0.7,0-1.4,0-2.2v-3.4c-1.5,3-3.7,5.1-6.6,6.1l-0.1-0.2c2.6-1.6,4.5-3.7,5.7-6.3h-4.1c-0.4,0-0.8,0.1-1.1,0.2l-0.5-0.7
					c0.4,0.1,0.8,0.1,1.3,0.1h5.4v-3h-3.9c-0.4,0-0.8,0.1-1.1,0.2l-0.6-0.7c0.4,0.1,0.8,0.1,1.3,0.1h4.3c0-1.4,0-2.4-0.1-3.1
					l1.6,0.7c0.1,0.1,0.2,0.1,0.2,0.2s-0.1,0.1-0.2,0.2l-0.4,0.3V41z M39.3,38.3c1.5,0.7,2.3,1.4,2.3,2c0,0.3-0.1,0.6-0.3,0.9
					c-0.2,0.3-0.4,0.4-0.6,0.4c-0.2,0-0.4-0.2-0.4-0.6c-0.1-0.8-0.4-1.6-1.1-2.5L39.3,38.3z M47.1,40.7l1.9-1.4h-4.9
					c-0.4,0-0.8,0.1-1.1,0.2l-0.6-0.8c0.4,0.1,0.8,0.1,1.3,0.1h5.6l0.8-0.6l0.9,1c0.1,0.1,0.2,0.2,0.2,0.3c0,0.1-0.1,0.1-0.3,0.1
					c-0.4,0-0.9,0.1-1.5,0.4s-1.3,0.6-2.1,1c0,0.1,0,0.1,0,0.2c0,0.2-0.1,0.3-0.2,0.4c-0.1,0.1-0.3,0.1-0.4,0.1
					c-0.2,0-0.3-0.1-0.4-0.3c-0.4-0.7-0.8-1.1-1.3-1.3L45,40c0.7,0.1,1.2,0.2,1.5,0.3S47,40.5,47.1,40.7z M43.9,46.9V49
					c0,0.2,0,0.4-0.1,0.4c0,0.1-0.2,0.2-0.4,0.3c-0.2,0.1-0.4,0.2-0.5,0.2c-0.1,0-0.2-0.1-0.2-0.2s0-0.3,0-0.4
					c0.1-0.7,0.1-1.5,0.1-2.6V44c0-0.9,0-1.8-0.1-2.6l1.4,0.7h5.4l0.5-0.7l0.9,0.8c0.1,0,0.1,0.1,0.1,0.1s0,0.1-0.1,0.2l-0.2,0.2
					v5.9c0,0.4,0,0.7-0.1,0.9c-0.1,0.2-0.3,0.3-0.6,0.6c-0.3,0.2-0.6,0.3-0.6,0.3c-0.1,0-0.1-0.1-0.2-0.2c-0.1-0.3-0.2-0.5-0.4-0.6
					s-0.6-0.3-1.2-0.5l0.1-0.2c0.7,0.1,1.2,0.2,1.5,0.2s0.4,0,0.5-0.1c0.1-0.1,0.1-0.3,0.1-0.5v-1.2h-2.4c0,0.6,0,1.1,0,1.4l0,0.8
					c0,0.1,0,0.3-0.1,0.3c-0.1,0.1-0.2,0.2-0.5,0.3s-0.4,0.1-0.5,0.1c-0.1,0-0.2-0.1-0.2-0.2c0-0.1,0-0.3,0-0.4
					c0.1-0.8,0.1-1.6,0.1-2.4H43.9z M49.8,44.2v-1.8h-2.4v1.8H49.8z M43.9,42.4v1.8h2.4v-1.8H43.9z M49.8,46.4v-1.8h-2.4v1.8H49.8z
					 M43.9,44.7v1.8h2.4v-1.8H43.9z M41.1,49.6c0.4,0.3,0.8,0.6,1.3,0.8c0.5,0.2,1,0.3,1.5,0.4c0.5,0.1,1.2,0.1,2.2,0.1
					c2.2,0,4.4-0.1,6.5-0.4l0.1,0.2c-0.7,0.2-1.1,0.6-1.2,1.1c0,0.1-0.1,0.2-0.2,0.2l-1.6,0c-0.9,0-1.9,0-2.9,0s-1.8,0-2.4-0.1
					c-0.6-0.1-1.2-0.2-1.6-0.4c-0.4-0.2-0.9-0.6-1.5-1.1c-0.2-0.1-0.4-0.2-0.7-0.2c-0.3,0-0.6,0.2-0.8,0.5s-0.6,0.7-0.9,1.2
					c-0.1,0.1-0.1,0.2-0.2,0.2c0,0-0.1,0-0.2-0.1l-0.9-1.1c1.2-0.6,2-1,2.5-1.2v-5h-0.9c-0.5,0-0.9,0.1-1.1,0.2L37.4,44
					c0.4,0.1,0.8,0.1,1.3,0.1H40l0.7-0.7l0.9,0.7c0.1,0.1,0.2,0.2,0.2,0.3c0,0.1-0.1,0.2-0.2,0.2l-0.5,0.3V49.6z M65,42v6.1
					c0,0.6-0.1,1-0.2,1.3c-0.1,0.3-0.4,0.6-0.7,0.8c-0.3,0.2-0.6,0.4-0.7,0.4s-0.1-0.1-0.2-0.4c0-0.2-0.1-0.4-0.4-0.6
					c-0.2-0.2-0.7-0.4-1.5-0.6l0.1-0.3c0.8,0.1,1.3,0.2,1.6,0.2c0.3,0,0.5,0,0.6-0.1c0.1-0.1,0.2-0.3,0.2-0.7V42H60
					c-0.5,0-0.8,0.1-1.1,0.2l-0.6-0.7c0.4,0.1,0.8,0.1,1.3,0.1h4.3v-1.3c0-0.8,0-1.7-0.1-2.7l1.6,0.8c0.1,0.1,0.2,0.1,0.2,0.2
					c0,0.1-0.1,0.2-0.2,0.2L65,39.2v2.4h1.1l0.8-1l0.9,1.1c0.1,0.1,0.1,0.2,0.1,0.2c0,0.1-0.1,0.1-0.2,0.1H65z M55.6,38.6
					c1.6,0.7,2.3,1.4,2.3,2.1c0,0.3-0.1,0.5-0.2,0.8c-0.2,0.2-0.4,0.3-0.6,0.3c-0.1,0-0.2-0.1-0.3-0.2c-0.1-0.1-0.2-0.2-0.2-0.4
					c-0.1-0.8-0.5-1.6-1.2-2.4L55.6,38.6z M59.9,43.2c0.6,0.3,1.1,0.7,1.5,1c0.4,0.3,0.6,0.7,0.6,1s-0.1,0.6-0.3,0.9
					c-0.2,0.2-0.4,0.4-0.6,0.4c-0.2,0-0.4-0.2-0.4-0.5c-0.1-0.7-0.2-1.2-0.3-1.5s-0.3-0.7-0.6-1L59.9,43.2z M57.3,49.5
					c0.5,0.4,1.1,0.8,1.7,1s1.4,0.4,2.2,0.4S63,51,64,51c1,0,2.4-0.1,4.2-0.3l0,0.3c-0.4,0.1-0.6,0.3-0.8,0.5s-0.3,0.4-0.3,0.5
					c0,0.1-0.1,0.2-0.1,0.2c0,0-0.1,0-0.3,0c-0.7,0-1.5,0-2.7-0.1c-1.1-0.1-2-0.1-2.6-0.2c-0.6-0.1-1.1-0.2-1.6-0.3
					c-0.5-0.2-1-0.4-1.4-0.6s-0.8-0.5-1.1-0.8c-0.3-0.3-0.5-0.4-0.6-0.4s-0.3,0.1-0.5,0.2c-0.2,0.1-0.4,0.4-0.7,0.8
					c-0.3,0.4-0.6,0.8-0.7,1.1c-0.1,0.1-0.1,0.2-0.2,0.2s-0.1-0.1-0.2-0.2l-0.8-1c1.4-0.9,2.3-1.4,2.6-1.5v-4.7h-1.1
					c-0.6,0-0.9,0.1-1.1,0.2l-0.6-0.7c0.4,0.1,0.8,0.1,1.3,0.1h1.3l0.6-0.8l1,0.7c0.1,0.1,0.2,0.2,0.2,0.2s-0.1,0.1-0.2,0.2L57.3,45
					V49.5z"/>
				<polygon id="Rectangle-10" class="st0" points="25.9,32.2 64.9,32.2 64.9,32.7 25.9,32.7 				"/>
				<polygon id="Rectangle-10_1_" class="st0" points="25.9,57.2 64.9,57.2 64.9,57.7 25.9,57.7 				"/>
				<g id="yunzhijia" transform="translate(20.000000, 6.700535)">
					<path id="yunzhijia.com" class="st0" d="M3.8,9.6c0-0.1-0.1-0.2-0.1-0.3c0-0.1,0-0.1,0-0.2c0,0,0-0.1,0-0.1c0,0,0-0.1,0.1-0.1
						l0.2-0.2L3.8,8.5C3.6,8.7,3.4,8.9,3.2,9C3,9.2,2.8,9.3,2.6,9.5l0.1,0.1l0.5-0.2c0.1,0,0.2,0,0.2,0.1c0.1,0.1,0.1,0.1,0.1,0.2
						l0.7,2.2l-2.2-1.4C2,10.5,2,10.4,2,10.3c0-0.1,0-0.1,0.1-0.2c0-0.1,0.1-0.1,0.1-0.2C2.3,10,2.3,9.9,2.4,9.9L2.3,9.8
						c-0.2,0.2-0.4,0.4-0.6,0.5c-0.2,0.2-0.5,0.4-0.8,0.6L1,10.9l0.3-0.1c0.1,0,0.2,0,0.3,0.1l2.5,1.5c0.1,0.1,0.2,0.1,0.3,0.2
						c0.1,0.1,0.1,0.2,0.2,0.4c0,0.1,0.1,0.2,0.1,0.2c0,0,0,0.1,0,0.1c0,0,0,0.1,0,0.1c0,0,0,0,0,0.1c0,0,0,0.1-0.1,0.1
						c0,0-0.1,0-0.1,0.1l-0.1,0.1c-0.1,0-0.1,0.1-0.1,0.1c-0.1,0-0.1,0.1-0.1,0.2c0,0.1,0,0.1,0.1,0.2c0.1,0,0.1,0.1,0.2,0.1
						c0.1,0,0.2,0,0.2-0.1c0.1-0.1,0.2-0.3,0.3-0.4c0-0.2,0-0.5-0.1-0.7L3.8,9.6z M4.4,8.4c0.1-0.1,0.3-0.1,0.5-0.1
						C4.9,8.3,5,8.3,5,8.4L6,9.9c0.1,0.3,0.4,0.5,0.7,0.6c0.3,0.1,0.6,0.1,0.8-0.1c0.2-0.1,0.3-0.3,0.5-0.5C8,9.7,8.1,9.5,8.2,9.2
						l0.3,0.6l0.9-0.9c0,0,0,0,0-0.1c0,0,0,0,0-0.1C9.3,8.8,9.2,8.9,9.1,8.9c-0.1,0-0.1,0-0.2,0c-0.1,0-0.1,0-0.1-0.1
						C8.7,8.8,8.7,8.7,8.6,8.7L7.3,6.5L6.1,7.2l0.1,0.1c0.2-0.1,0.3-0.1,0.4-0.2c0.1,0,0.2-0.1,0.2-0.1c0,0,0.1,0,0.1,0
						C7,7.1,7,7.2,7,7.2L8.1,9C8,9.4,7.8,9.7,7.4,9.9C7.3,10,7.1,10.1,6.9,10C6.7,9.9,6.5,9.8,6.5,9.6L5.3,7.7l-1,0.6L4.4,8.4z
						 M13.8,7l-0.4,0.1c-0.1,0-0.1,0-0.2,0c-0.1-0.1-0.1-0.1-0.1-0.2l-0.7-1.6c-0.1-0.3-0.2-0.6-0.5-0.7c-0.3-0.1-0.6-0.1-0.9,0
						c-0.2,0.1-0.4,0.2-0.6,0.4c-0.2,0.2-0.4,0.4-0.5,0.7L9.7,5L9.6,5c0,0.2-0.1,0.4-0.2,0.6C9.3,5.8,9.2,6,9,6.1l0.1,0.1
						c0.1,0,0.3-0.1,0.4,0c0.1,0.1,0.2,0.2,0.2,0.3l0.7,1.6c0,0,0,0.1,0,0.2s0,0.1-0.1,0.1L9.9,8.7L10,8.8c0.1-0.1,0.2-0.1,0.4-0.2
						s0.3-0.1,0.5-0.2l0.3-0.1c0.1-0.1,0.3-0.1,0.4-0.1l0.3-0.1l-0.1-0.1L11.2,8c-0.1,0-0.2,0-0.3-0.1L10.1,6
						c0.1-0.4,0.4-0.7,0.8-0.9c0.2-0.1,0.5-0.1,0.7,0c0.2,0.2,0.3,0.4,0.4,0.6l0.6,1.4c0.1,0.2,0.1,0.3,0,0.4l-0.4,0.2l0.1,0.1
						c0.5-0.3,1.1-0.5,1.7-0.7L13.8,7z M16.9,5.2c0,0.2-0.1,0.4-0.1,0.6c0,0.1-0.1,0.2-0.2,0.3c-0.1,0.1-0.2,0.1-0.4,0.2l-1.2,0.3
						l1.4-3.4L16.4,3l-1.9,0.6c-0.1,0.1-0.3,0.1-0.4,0.1c-0.1,0-0.1-0.1-0.1-0.1c0-0.1,0-0.2,0-0.3l-0.2,0l-0.1,1.4l0.1,0
						c0-0.1,0.1-0.3,0.1-0.4c0-0.1,0.1-0.2,0.2-0.3c0.1-0.1,0.1-0.1,0.2-0.2c0.1,0,0.2-0.1,0.3-0.1l1.1-0.3l-1.5,3.5l0,0.1
						C14.6,7,15,6.8,15.6,6.7c0.6-0.2,1.1-0.3,1.6-0.4l-0.1-1.1L16.9,5.2z M18.5,5.5c0,0,0,0.1,0,0.1c0,0-0.1,0.1-0.1,0.1l-0.4,0.2
						l0,0.1C18,6,18.2,6,18.3,6c0.2,0,0.4-0.1,0.6-0.1c0.2,0,0.4-0.1,0.6-0.1c0.2,0,0.3,0,0.4,0l0-0.1l-0.6-0.1
						c-0.1,0-0.1,0-0.1-0.1c0,0,0-0.1-0.1-0.1l-0.3-1.8c0.1-0.2,0.3-0.4,0.4-0.6c0.2-0.1,0.3-0.2,0.6-0.3c0.2,0,0.4,0,0.6,0.1
						c0.2,0.1,0.3,0.3,0.3,0.5l0.3,1.8c0,0.1,0,0.1,0,0.2c0,0-0.1,0.1-0.1,0.1l-0.3,0.1l0,0.1c0.2,0,0.3-0.1,0.5-0.1
						c0.1,0,0.3,0,0.4-0.1c0.1,0,0.2,0,0.4,0c0.1,0,0.3,0,0.5,0l0-0.1l-0.4,0c-0.1,0-0.1,0-0.2-0.1c0,0-0.1-0.1-0.1-0.1l-0.3-1.8
						c0-0.3-0.1-0.5-0.3-0.7c-0.2-0.2-0.4-0.3-0.6-0.3c0,0-0.1,0-0.1,0c0,0-0.1,0-0.1,0c-0.5,0.1-1,0.5-1.2,1l-0.5-3l-0.2,0
						c-0.2,0.1-0.3,0.2-0.5,0.3c-0.1,0.1-0.3,0.1-0.4,0.2l0,0.1c0.1,0,0.2,0,0.3,0c0.1,0,0.1,0,0.2,0.1c0,0,0.1,0.1,0.1,0.1
						c0,0.1,0,0.1,0.1,0.2L18.5,5.5z M24.5,5.2l-0.4-0.1c-0.1,0-0.1,0-0.2-0.1c0-0.1,0-0.1,0-0.2l-0.1-3l-0.1,0
						c-0.1,0.2-0.2,0.3-0.4,0.4c-0.2,0.1-0.3,0.2-0.5,0.3l0,0.1c0.2,0,0.3,0.1,0.4,0.1c0.1,0.1,0.1,0.2,0.1,0.3l0.1,1.7
						c0,0.2-0.1,0.3-0.3,0.3l-0.5,0.1l0,0.1c0.1,0,0.2,0,0.4,0c0.2,0,0.4,0,0.6,0c0.2,0,0.4,0,0.6,0c0.2,0,0.3,0,0.4,0L24.5,5.2z
						 M23,0.2c-0.1,0.1-0.1,0.2-0.1,0.3c0,0.1,0,0.2,0.1,0.3c0.1,0.1,0.2,0.1,0.3,0.1c0.1,0,0.2,0,0.3-0.1c0.1-0.1,0.1-0.2,0.1-0.3
						c0-0.1-0.1-0.2-0.1-0.3c-0.1-0.1-0.2-0.1-0.3-0.1C23.2,0.1,23.1,0.1,23,0.2z M24.9,7.4c0.3-0.2,0.6-0.5,0.8-0.8
						c0.2-0.3,0.3-0.7,0.3-1l0.1-3.8H26c-0.1,0.1-0.2,0.3-0.4,0.4c-0.2,0.1-0.4,0.2-0.6,0.2v0.2c0.1,0,0.2,0,0.3,0.1
						c0.1,0,0.1,0.1,0.2,0.1c0,0.1,0,0.1,0,0.2l0,2.6c0,0.3-0.1,0.7-0.2,1c-0.1,0.3-0.3,0.5-0.5,0.7L24.9,7.4z M25.5,0.1
						c-0.1,0.1-0.1,0.2-0.1,0.3c0,0.1,0,0.2,0.1,0.3c0.1,0.1,0.2,0.1,0.3,0.1c0.1,0,0.2,0,0.3-0.1c0.1-0.1,0.1-0.2,0.1-0.3
						c0-0.1,0-0.2-0.1-0.3C26,0.1,25.9,0,25.8,0C25.7,0,25.6,0,25.5,0.1L25.5,0.1z M28.9,5.4l-0.4-0.1c-0.1,0-0.1,0-0.1-0.1
						c0-0.1,0-0.1,0-0.2l0.2-3l-0.1,0c-0.1,0.2-0.3,0.3-0.4,0.4c-0.2,0.1-0.4,0.2-0.6,0.2l0,0.1c0.1,0,0.3,0.1,0.4,0.2
						c0.1,0.1,0.1,0.2,0.1,0.3l-0.1,1.7c0,0.2-0.1,0.3-0.3,0.3l-0.5,0.1l0,0.1c0.1,0,0.2,0,0.4,0c0.2,0,0.4,0,0.6,0
						c0.2,0,0.4,0,0.6,0.1c0.2,0,0.3,0,0.4,0.1L28.9,5.4z M28,0.2c-0.1,0.1-0.1,0.2-0.1,0.3c0,0.1,0,0.2,0.1,0.3s0.2,0.1,0.3,0.1
						c0.1,0,0.2,0,0.3-0.1c0.1-0.1,0.1-0.1,0.1-0.2c0-0.1,0-0.2-0.1-0.3c-0.1-0.1-0.2-0.1-0.3-0.1C28.2,0.1,28.1,0.2,28,0.2L28,0.2z
						 M31.3,5.9c0.1,0,0.3-0.1,0.4-0.2c0.1-0.1,0.2-0.2,0.3-0.3c0.1-0.1,0.2-0.2,0.2-0.3l0,0.3c0,0.2,0,0.4,0,0.5
						c0.1,0.1,0.2,0.2,0.4,0.3c0.1,0,0.2,0,0.3,0C33,6.1,33,6.1,33.1,6c0.1-0.1,0.1-0.2,0.2-0.2l-0.1-0.1c0,0-0.1,0-0.1,0
						c0,0-0.1,0-0.1,0c0,0-0.1,0-0.1,0c-0.1,0-0.2-0.1-0.2-0.1c0-0.1-0.1-0.2,0-0.3C32.8,4.9,32.9,4.5,33,4c0.1-0.4,0.2-0.9,0.2-1.3
						l-0.1,0l-0.5,0.2c-0.1-0.1-0.1-0.1-0.2-0.1c-0.1,0-0.2-0.1-0.2-0.1c-0.1,0-0.2-0.1-0.3-0.1c-0.2,0-0.4,0-0.7,0
						c-0.2,0-0.4,0.1-0.6,0.2C30.3,2.9,30.1,3,30,3.2c-0.2,0.2-0.3,0.5-0.3,0.8c0,0.2,0,0.4,0,0.6c0,0.2,0.1,0.4,0.2,0.6
						c0.1,0.2,0.2,0.3,0.4,0.4c0.2,0.1,0.4,0.2,0.6,0.2C31,5.9,31.1,5.9,31.3,5.9L31.3,5.9z M32.3,4.3c0,0.2-0.1,0.4-0.2,0.5
						C32.1,5,32,5.1,31.9,5.2c-0.1,0.1-0.2,0.2-0.4,0.2c-0.1,0-0.3,0.1-0.4,0c-0.2,0-0.3-0.1-0.4-0.2c-0.1-0.1-0.2-0.2-0.3-0.4
						c-0.1-0.2-0.1-0.3-0.1-0.5c0-0.2,0-0.4,0-0.6c0-0.2,0.1-0.4,0.2-0.6c0.1-0.1,0.2-0.3,0.3-0.4c0.1-0.1,0.3-0.1,0.4-0.2
						c0.1,0,0.3,0,0.4,0c0.2,0,0.3,0.1,0.4,0.2c0.1,0.1,0.2,0.2,0.2,0.3c0.1,0.1,0.1,0.3,0.1,0.4c0,0.2,0,0.4,0,0.5L32.3,4.3z
						 M34.7,6.6C35,6.5,35,6.2,34.9,6s-0.4-0.3-0.6-0.2C34.1,6,34,6.2,34.1,6.5C34.2,6.7,34.5,6.8,34.7,6.6L34.7,6.6z M38.7,7.3
						c-0.2,0.1-0.3,0.1-0.5,0.2c-0.2,0-0.4,0-0.6-0.1c-0.2-0.1-0.3-0.2-0.5-0.3c-0.1-0.1-0.2-0.3-0.3-0.5c-0.1-0.2-0.1-0.4-0.1-0.5
						c0-0.2,0-0.4,0.1-0.6C37,5.3,37,5.1,37.1,5c0.1-0.1,0.2-0.3,0.3-0.4c0.1-0.1,0.3-0.2,0.4-0.2c0.2,0,0.3,0,0.5,0
						c0.1,0,0.2,0.1,0.3,0.2c0.1,0.1,0.1,0.2,0.2,0.3L39,5.2c0,0.1,0.1,0.1,0.2,0.2c0.1,0,0.1,0,0.2,0c0.1,0,0.1-0.1,0.2-0.2
						c0-0.2,0-0.4-0.2-0.5c-0.2-0.2-0.4-0.3-0.7-0.4c-0.3-0.1-0.5-0.2-0.8-0.2c-0.2,0-0.5,0.1-0.7,0.1c-0.2,0.1-0.4,0.2-0.5,0.4
						c-0.2,0.2-0.3,0.4-0.4,0.7c-0.1,0.2-0.1,0.4-0.1,0.7c0,0.2,0,0.4,0.1,0.6c0.1,0.2,0.2,0.4,0.4,0.6c0.2,0.2,0.4,0.3,0.6,0.4
						c0.2,0.1,0.5,0.1,0.7,0.1c0.2,0,0.5-0.1,0.7-0.2L38.7,7.3z M41.4,9.4c0.2,0,0.5,0,0.7-0.1c0.2-0.1,0.4-0.2,0.6-0.3
						c0.2-0.2,0.3-0.3,0.4-0.6c0.1-0.2,0.2-0.5,0.2-0.7c0-0.5-0.1-0.9-0.4-1.3c-0.2-0.2-0.4-0.4-0.6-0.5c-0.2-0.1-0.5-0.2-0.7-0.2
						c-0.2,0-0.5,0-0.7,0.1c-0.2,0.1-0.4,0.2-0.6,0.3c-0.2,0.2-0.3,0.4-0.5,0.6c-0.1,0.2-0.2,0.5-0.2,0.7c0,0.2,0,0.5,0.1,0.7
						c0.1,0.2,0.2,0.4,0.3,0.6c0.2,0.2,0.4,0.3,0.6,0.4C40.9,9.3,41.2,9.3,41.4,9.4L41.4,9.4z M41.3,6.1c0.3-0.2,0.7-0.2,1,0
						c0.3,0.2,0.5,0.5,0.6,0.8c0,0.2,0,0.4,0,0.6c0,0.2-0.1,0.4-0.2,0.6c-0.1,0.2-0.2,0.4-0.4,0.5c-0.1,0.1-0.3,0.3-0.5,0.3
						c-0.2,0.1-0.3,0.1-0.5,0.1c-0.2,0-0.3,0-0.5-0.1c-0.3-0.1-0.5-0.4-0.6-0.8c-0.1-0.4,0-0.8,0.2-1.2C40.6,6.7,40.9,6.3,41.3,6.1
						L41.3,6.1z M46.8,12.9c0.2,0.1,0.4,0.3,0.7,0.5c0.3,0.2,0.5,0.4,0.7,0.6l0.1-0.1L48,13.6c-0.1-0.1,0-0.2,0.1-0.4l1-1.4
						c0.2-0.2,0.3-0.6,0.3-0.9c0-0.3-0.2-0.5-0.4-0.7c-0.2-0.2-0.4-0.3-0.7-0.3c-0.3,0-0.5,0-0.8,0c0-0.1,0-0.3,0-0.4
						c0-0.1,0-0.2-0.1-0.3c0-0.1-0.1-0.2-0.2-0.2c-0.1-0.1-0.2-0.2-0.2-0.2c-0.2-0.1-0.4-0.2-0.6-0.3c-0.3,0-0.6,0-0.8,0l0.5-0.7
						L46,7.8c-0.2,0.1-0.4,0.1-0.6,0.1c-0.2,0-0.3,0-0.5-0.1l-0.1,0.1C44.9,8,44.9,8,45,8.1c0,0,0.1,0.1,0.1,0.1c0,0,0,0.1,0,0.1
						c0,0.1-0.1,0.1-0.1,0.2L43.8,10c0,0.1-0.1,0.1-0.2,0.2c-0.1,0-0.2,0-0.3-0.1L43.1,10L43,10.2c0.5,0.3,1,0.7,1.5,1.1l0.1-0.1
						l-0.3-0.3c-0.1-0.1-0.1-0.1-0.1-0.2c0-0.1,0.1-0.2,0.1-0.3l1-1.4c0.1-0.1,0.1-0.1,0.2-0.1c0.1,0,0.2,0,0.3,0
						c0.1,0,0.2,0,0.4,0.1c0.1,0,0.2,0.1,0.3,0.1c0.2,0.1,0.3,0.3,0.3,0.5c0,0.2-0.1,0.5-0.3,0.7l-0.9,1.2c-0.1,0.1-0.1,0.1-0.2,0.1
						c-0.1,0-0.2,0-0.3-0.1l-0.2-0.1l-0.1,0.1c0.3,0.2,0.5,0.4,0.8,0.6c0.3,0.2,0.5,0.4,0.7,0.6l0.1-0.1l-0.3-0.3
						c-0.1-0.1-0.1-0.1-0.1-0.2c0-0.1,0.1-0.2,0.1-0.2l1.1-1.5c0.4-0.1,0.8-0.1,1.1,0.2c0.2,0.1,0.3,0.3,0.4,0.6
						c0,0.3-0.1,0.5-0.3,0.7l-0.9,1.2c0,0.1-0.1,0.1-0.2,0.2c-0.1,0-0.2,0-0.3-0.1l-0.2-0.1L46.8,12.9z"/>
				</g>
			</g>
		</g>
	</g>
</g>
</svg>
