<?xml version="1.0" encoding="utf-8"?>
<!-- Generator: Adobe Illustrator 19.0.0, SVG Export Plug-In . SVG Version: 6.00 Build 0)  -->
<svg version="1.1" id="图层_1" xmlns="http://www.w3.org/2000/svg" xmlns:xlink="http://www.w3.org/1999/xlink" x="0px" y="0px"
	 viewBox="-363 655 23 25" style="enable-background:new -363 655 23 25;" xml:space="preserve">
<style type="text/css">
	.st0{fill:#E6E8EE;}
	.st1{fill:none;stroke:#E6E8EE;stroke-width:0.5;}
</style>
<title>头像气泡</title>
<desc>Created with Sketch.</desc>
<g id="_x33_b">
	<g id="有新消息-1-气泡头像方案-未标注-copy" transform="translate(-183.000000, -122.000000)">
		<g id="Group-5">
			<g id="Group-8" transform="translate(183.000000, 122.908731)">
				<g id="Group-7">
					<g id="Combined-Shape">
						<g>
							<path id="path-1" class="st0" d="M-357.1,675.8c-1.7,0-3.2,0-3.7,0c0.6-0.6,0.8-1.7,0.9-2.7c-1.3-1.8-2.1-4-2.1-6.4
								c0-5.9,4.8-10.8,10.7-10.8s10.7,4.8,10.7,10.8s-4.8,10.8-10.7,10.8C-353.4,677.5-355.4,676.9-357.1,675.8z"/>
						</g>
						<path class="st1" d="M-360.3,675.6c0.9,0,1.2,0,3.2,0l0.1,0c1.7,1.1,3.6,1.7,5.6,1.7c5.8,0,10.5-4.7,10.5-10.5
							c0-5.8-4.7-10.5-10.5-10.5s-10.5,4.7-10.5,10.5c0,2.3,0.7,4.5,2,6.2l0,0.2C-359.7,674.1-359.9,675-360.3,675.6z"/>
					</g>
				</g>
			</g>
		</g>
	</g>
</g>
</svg>
